<svg width="10" height="18" viewBox="0 0 10 18" fill="none" xmlns="http://www.w3.org/2000/svg">
<path d="M9.92632 9.03879C9.91913 9.34609 9.79819 9.6398 9.58691 9.86305L2.1393 17.621C1.91015 17.8577 1.59647 17.9939 1.26703 17.9998C0.937593 18.0057 0.619279 17.8807 0.381844 17.6522C0.144408 17.4238 0.00721646 17.1105 0.000369086 16.7811C-0.00647829 16.4517 0.117571 16.133 0.345308 15.8949L6.96862 9L0.345308 2.10515C0.117571 1.86703 -0.00647811 1.54833 0.000369272 1.21891C0.00721666 0.889494 0.144408 0.576227 0.381844 0.347778C0.619279 0.119329 0.937594 -0.00566493 1.26703 0.000196354C1.59647 0.00605764 1.91015 0.142294 2.1393 0.379043L9.58691 8.13695C9.70074 8.25706 9.78941 8.39872 9.8477 8.5536C9.90599 8.70847 9.93271 8.87344 9.92632 9.03879Z" fill="#646262"/>
</svg>
