<svg width="36" height="32" viewBox="0 0 36 32" fill="none" xmlns="http://www.w3.org/2000/svg">
<path d="M23.2174 23.6522C21.4783 26.3479 17.6956 28.2174 13.3478 28.2174C11.4348 28.2174 9.56521 27.8696 7.91304 27.1739C7.65217 27.0435 7.34782 27.1305 7.17391 27.3479L5.43478 28.6522L5.95652 26.8696C6.08695 26.5652 6 26.2174 5.73913 26.0435C3.56522 24.5218 2.34783 22.4783 2.34783 20.3044C2.34783 18.1739 3.47826 16.2609 5.34782 14.8261C5.26087 14.6087 5.17391 14.3913 5.08696 14.2174C5 14 4.95652 13.7826 4.86956 13.5652C2.47826 15.2609 1 17.6522 1 20.3044C1 22.7392 2.26087 25.087 4.52174 26.8261L3.60869 30.1305C3.52174 30.3913 3.6087 30.6957 3.86956 30.8696C4 30.9565 4.13043 31 4.26087 31C4.3913 31 4.52174 30.9565 4.65217 30.8696L7.78261 28.5218C9.52174 29.1739 11.4348 29.5218 13.3478 29.5218C18.6087 29.5218 23.087 27 24.8261 23.4783C24.5652 23.5218 24.3043 23.5652 24.0435 23.5652C23.7826 23.6087 23.5217 23.6522 23.2174 23.6522Z" fill="#646262" stroke="#646262"/>
<path d="M35.1739 12.6087C35.1739 6.21739 28.2609 1 19.8261 1C11.3478 1 4.47827 6.21739 4.47827 12.6087C4.47827 13.3478 4.56523 14.0435 4.73914 14.7391C4.78262 14.9565 4.86958 15.1739 4.91305 15.3913C5.00001 15.6087 5.04349 15.7826 5.13045 16C7.08697 20.6956 12.9131 24.1739 19.8261 24.1739C20.6522 24.1739 21.5217 24.1304 22.3478 24C22.5652 23.9565 22.8261 23.9565 23.0435 23.913C23.2609 23.8696 23.5217 23.8261 23.7391 23.7826C24.8261 23.5652 25.913 23.2609 26.9565 22.8696L31 25.913C31.1304 26 31.2609 26.0435 31.3913 26.0435C31.5217 26.0435 31.6522 26 31.7826 25.913C32 25.7391 32.1304 25.4783 32.0435 25.1739L30.7391 20.7826C33.5217 18.6087 35.1739 15.6522 35.1739 12.6087ZM29.5217 20C29.2609 20.1739 29.1739 20.5217 29.3043 20.8261L30.1739 23.6522L27.6087 21.6956C27.4348 21.4783 27.1304 21.3478 26.8261 21.4783C25.913 21.8696 24.913 22.1739 23.8696 22.3913C23.6522 22.4348 23.4348 22.4783 23.2174 22.5217C23 22.5652 22.7826 22.6087 22.5652 22.6522C21.6522 22.7826 20.7826 22.8696 19.8261 22.8696C13.4348 22.8696 8.04349 19.7391 6.34784 15.4348C6.26088 15.2174 6.2174 15.0435 6.13044 14.8261C6.08697 14.6087 6.00001 14.3913 5.95653 14.2174C5.8261 13.6956 5.78262 13.1739 5.78262 12.6087C5.78262 6.95652 12.087 2.34783 19.8261 2.34783C27.5652 2.34783 33.8696 6.95652 33.8696 12.6087C33.8696 15.3913 32.3043 18.0435 29.5217 20Z" fill="#646262" stroke="#646262"/>
</svg>
