<svg width="24" height="24" viewBox="0 0 24 24" fill="none" xmlns="http://www.w3.org/2000/svg">
<g clip-path="url(#clip0_1_51)">
<path d="M16.2484 1.17126C16.2998 1.17126 16.3512 1.17126 16.4054 1.17126C16.5315 2.7283 15.9372 3.89172 15.2149 4.73423C14.5062 5.57092 13.5357 6.3824 11.966 6.25927C11.8613 4.72453 12.4566 3.6474 13.1779 2.80684C13.8469 2.02347 15.0733 1.32639 16.2484 1.17126Z" fill="black"/>
<path d="M21 17.3776C21 17.3932 21 17.4067 21 17.4213C20.5589 18.7573 19.9297 19.9023 19.1618 20.9648C18.4608 21.9295 17.6019 23.2277 16.0681 23.2277C14.7428 23.2277 13.8624 22.3755 12.5041 22.3522C11.0673 22.329 10.2772 23.0648 8.96348 23.25C8.81321 23.25 8.66293 23.25 8.51557 23.25C7.5509 23.1104 6.77238 22.3464 6.20521 21.6581C4.5328 19.624 3.24044 16.9966 3 13.6344C3 13.3047 3 12.9761 3 12.6464C3.1018 10.2401 4.27103 8.2836 5.82516 7.33542C6.64537 6.83127 7.77292 6.40177 9.02844 6.59374C9.56652 6.67712 10.1162 6.86132 10.5981 7.04359C11.0547 7.21908 11.6258 7.53029 12.1668 7.51381C12.5332 7.50314 12.8978 7.31215 13.2672 7.17739C14.3491 6.78667 15.4098 6.33876 16.8078 6.54914C18.488 6.80315 19.6805 7.54968 20.4173 8.70146C18.996 9.60602 17.8723 10.9692 18.0643 13.297C18.2349 15.4115 19.4643 16.6486 21 17.3776Z" fill="black"/>
</g>
<defs>
<clipPath id="clip0_1_51">
<rect width="24" height="24" fill="white"/>
</clipPath>
</defs>
</svg>
